# xmcd CD database file
#
# Track frame offsets:
#	150
#	17340
#	32150
#	48825
#	66548
#	81110
#	95200
#	107925
#	124960
#	140900
#
# Disc length: 2118 seconds
#
# Revision: 0
# Processed by: cddbd v1.5.1PL0 Copyright (c) Steve Scherf et al.
# Submitted via: CDex 1.51
#
DISCID=9108440a
DTITLE=Various Artist - 決定版！戦隊＆メタルヒーローベストコレクション　DISC2
DYEAR=1900
DGENRE=童謡 (日本)
TTITLE0=草尾毅/清く正しくカブタック
TTITLE1=草尾毅/逆転ロックンロール!!
TTITLE2=石原慎一/重甲ビーファイター
TTITLE3=石原慎一/地球孝行
TTITLE4=串田アキラ/宇宙刑事ギャバン
TTITLE5=樫原信彦/ビーファイターカブト
TTITLE6=柏原信彦/大声で歌えば
TTITLE7=宮内タカユキ/特警ウインスペクター
TTITLE8=大矢晋/特捜ロボシャンパーソン
TTITLE9=前田達也/True dream
EXTD=
EXTT0=
EXTT1=
EXTT2=
EXTT3=
EXTT4=
EXTT5=
EXTT6=
EXTT7=
EXTT8=
EXTT9=
PLAYORDER=
